<?xml version="1.0" encoding="UTF-8"?>
<svg width="16px" height="16px" viewBox="0 0 16 16" version="1.1" xmlns="http://www.w3.org/2000/svg" xmlns:xlink="http://www.w3.org/1999/xlink">
    <!-- Generator: Sketch 52.6 (67491) - http://www.bohemiancoding.com/sketch -->
    <title>icon-project_program</title>
    <desc>Created with Sketch.</desc>
    <g id="平台设置" stroke="none" stroke-width="1" fill="none" fill-rule="evenodd">
        <g id="角色管理－创建角色" transform="translate(-373.000000, -534.000000)" fill="#000000" fill-rule="nonzero">
            <g id="角色管理">
                <g id="Group-4" transform="translate(274.000000, 286.000000)">
                    <g id="table" transform="translate(0.000000, 104.000000)">
                        <g id="td－菜单分配2" transform="translate(0.000000, 142.000000)">
                            <g id="Group-5" transform="translate(98.000000, 0.000000)">
                                <g id="ic/settings_applications" transform="translate(0.000000, 1.000000)">
                                    <g id="icon-project_program">
                                        <path d="M15.5858114,10.4517016 L16.9837813,10.4517016 L15.3281029,13.2172807 L13.937928,13.2172807 L13.9301331,13.2172807 L15.5858114,10.4517016 Z M15.6020301,10.4507222 L13.2659539,6.54863357 L9.94065271,6.54863357 L10.6834806,5.30759444 L13.9209467,5.30759444 L17,10.4507222 L15.6020301,10.4507222 Z M9.04185887,13.858354 L10.4398287,13.858354 L8.78415037,16.6239331 L7.3861805,16.6239331 L9.04185887,13.858354 Z M3.2952854,3.13577597 L4.03826239,1.89473684 L7.31322675,1.89473684 L8.95070894,4.62992176 L8.24744297,5.78553775 L6.65823388,3.13577597 L4.69325527,3.13577597 L3.2952854,3.13577597 Z M2.63748218,9.8027325 L1,7.11200001 L2.63748218,4.37681509 L5.91244654,4.37681509 L7.54992872,7.11200001 L5.91244654,9.8027325 L2.63748218,9.8027325 Z M9.1874109,13.2155901 L7.54992872,10.5248576 L9.1874109,7.78967269 L12.4623753,7.78967269 L14.0998574,10.5248576 L12.4623753,13.2155901 L9.1874109,13.2155901 Z M2.63748218,16.6284477 L1,13.9377152 L2.63748218,11.2025303 L5.91244654,11.2025303 L7.54992872,13.9377152 L5.91244654,16.6284477 L2.63748218,16.6284477 Z"></path>
                                    </g>
                                </g>
                            </g>
                        </g>
                    </g>
                </g>
            </g>
        </g>
    </g>
</svg>